<svg xmlns="http://www.w3.org/2000/svg" viewBox="0 0 100 100">
  <!-- Background circle -->
  <circle cx="50" cy="50" r="48" fill="#5046e5" />
  
  <!-- MCP connections abstract representation -->
  <g fill="none" stroke="#ffffff" stroke-width="2.5" stroke-linecap="round">
    <!-- Center hub -->
    <circle cx="50" cy="50" r="12" fill="#34d399" stroke="none" />
    
    <!-- Connection lines -->
    <path d="M50 38 L50 20" />
    <path d="M50 62 L50 80" />
    <path d="M38 50 L20 50" />
    <path d="M62 50 L80 50" />
    
    <!-- Diagonal connections -->
    <path d="M41 41 L28 28" />
    <path d="M59 41 L72 28" />
    <path d="M41 59 L28 72" />
    <path d="M59 59 L72 72" />
    
    <!-- Nodes -->
    <circle cx="50" cy="20" r="6" fill="#ffffff" stroke="none" />
    <circle cx="50" cy="80" r="6" fill="#ffffff" stroke="none" />
    <circle cx="20" cy="50" r="6" fill="#ffffff" stroke="none" />
    <circle cx="80" cy="50" r="6" fill="#ffffff" stroke="none" />
    <circle cx="28" cy="28" r="6" fill="#ffffff" stroke="none" />
    <circle cx="72" cy="28" r="6" fill="#ffffff" stroke="none" />
    <circle cx="28" cy="72" r="6" fill="#ffffff" stroke="none" />
    <circle cx="72" cy="72" r="6" fill="#ffffff" stroke="none" />
  </g>
  
  <!-- Chat icon overlay -->
  <g transform="translate(38, 38) scale(0.5)">
    <path d="M20 2H4c-1.1 0-1.99.9-1.99 2L2 22l4-4h14c1.1 0 2-.9 2-2V4c0-1.1-.9-2-2-2zm-7 9h-2V5h2v6zm0 4h-2v-2h2v2z" fill="#ffffff" />
  </g>
</svg>